<?xml version="1.0" standalone="no"?>
<!DOCTYPE svg PUBLIC "-//W3C//DTD SVG 20010904//EN"
 "http://www.w3.org/TR/2001/REC-SVG-20010904/DTD/svg10.dtd">
<svg version="1.0" xmlns="http://www.w3.org/2000/svg"
 width="1184.000000pt" height="1192.000000pt" viewBox="0 0 1184.000000 1192.000000"
 preserveAspectRatio="xMidYMid meet">

<g transform="translate(0.000000,1192.000000) scale(0.100000,-0.100000)"
fill="#000000" stroke="none">
<path d="M6072 11893 c-16 -13 -55 -122 -143 -393 -322 -1000 -438 -1358 -649
-2005 -126 -385 -254 -777 -284 -871 l-56 -172 -188 -8 c-103 -5 -934 -8
-1847 -7 l-1660 2 35 -30 c149 -130 747 -570 1650 -1214 300 -213 579 -414
620 -446 119 -91 148 -93 405 -30 826 203 1629 579 2340 1094 151 110 269 205
474 381 230 198 313 281 346 346 41 80 33 163 -29 340 -196 552 -813 2432
-937 2850 -28 96 -52 176 -54 178 -1 1 -12 -5 -23 -15z"/>
<path d="M6992 10672 c-9 -6 34 -18 125 -36 274 -54 462 -118 587 -201 235
-156 338 -369 323 -670 -13 -253 -98 -505 -263 -776 -266 -440 -728 -919
-1285 -1336 -326 -243 -597 -410 -987 -607 -541 -272 -847 -393 -1302 -511
-118 -31 -217 -58 -220 -61 -10 -11 120 -123 184 -159 36 -20 66 -40 66 -43 0
-4 -256 -794 -569 -1757 -312 -962 -567 -1752 -565 -1754 6 -8 187 110 342
223 92 67 385 281 652 476 267 195 549 399 627 455 77 55 195 141 260 190
l120 90 6 125 c34 715 455 1435 1257 2152 579 518 1215 961 1808 1257 544 272
1487 609 1917 685 73 13 21 14 -585 15 -630 1 -1381 10 -1389 17 -2 2 24 52
57 111 271 486 377 805 375 1128 0 178 -18 260 -87 400 -57 115 -132 206 -235
283 -193 146 -386 219 -736 282 -129 24 -459 38 -483 22z"/>
<path d="M10490 8203 c-780 -34 -1806 -410 -2815 -1031 -394 -242 -783 -529
-1080 -797 -705 -635 -1106 -1208 -1225 -1750 -77 -354 -34 -656 125 -880 159
-224 429 -370 806 -435 132 -23 457 -39 429 -22 -8 6 -84 28 -168 51 -269 72
-393 133 -512 250 -205 203 -267 511 -174 870 41 156 166 431 197 431 52 0
481 -301 1407 -989 1217 -904 1580 -1162 1580 -1123 0 41 -188 625 -531 1647
-345 1028 -469 1409 -533 1630 -69 237 -78 199 71 300 70 48 220 156 333 240
200 149 477 350 1320 958 228 165 473 343 545 395 71 52 160 115 198 139 37
24 76 58 87 76 21 34 25 48 13 45 -5 -1 -37 -3 -73 -5z"/>
<path d="M606 1783 c-193 -41 -386 -165 -478 -307 -61 -94 -77 -163 -96 -411
-23 -294 -21 -409 7 -508 71 -258 249 -431 526 -512 170 -50 347 -36 585 47
63 22 122 42 132 45 12 4 22 -7 36 -40 l20 -45 66 -7 c84 -9 590 1 636 12 l35
9 9 125 8 126 92 11 c133 17 193 35 318 98 l113 57 65 -74 c109 -125 185 -195
275 -254 187 -125 400 -171 607 -131 132 25 202 58 397 184 35 23 70 42 78 42
9 0 13 -18 13 -67 0 -38 3 -85 7 -106 l6 -38 356 3 c264 2 362 6 378 16 16 9
33 10 65 2 26 -6 340 -10 809 -10 l766 0 6 263 c4 144 7 361 7 483 l0 221 107
6 c58 4 139 7 178 7 40 0 93 3 119 6 l46 7 0 358 0 358 -57 8 c-81 11 -1497 6
-1553 -5 -25 -6 -59 -16 -77 -23 -27 -11 -48 -10 -140 6 -92 16 -170 20 -533
23 -234 2 -440 1 -457 -3 -29 -5 -33 -10 -33 -39 0 -44 -30 -136 -44 -136 -6
0 -46 23 -90 50 -105 68 -138 84 -232 114 -107 34 -181 46 -281 46 -180 0
-346 -66 -547 -219 l-119 -90 -30 16 c-17 8 -69 52 -118 98 -95 91 -143 115
-276 141 -127 24 -412 36 -701 28 -262 -6 -273 -7 -287 -27 -8 -12 -15 -34
-15 -50 0 -16 -5 -37 -10 -47 -10 -18 -17 -16 -118 34 -220 109 -392 139 -576
99z m1619 -247 c259 -59 397 -224 397 -476 0 -162 -63 -303 -179 -396 -88 -72
-140 -86 -358 -95 -104 -4 -196 -8 -202 -8 -9 -1 -13 -24 -13 -78 0 -43 -3
-108 -7 -145 l-6 -68 -158 0 -158 0 -3 628 c-2 345 0 631 3 635 22 29 561 31
684 3z m-1307 -2 c210 -43 354 -180 369 -351 l5 -60 -53 -6 c-79 -10 -151 -8
-208 4 -43 9 -55 17 -78 51 -40 59 -87 80 -176 80 -102 0 -187 -38 -187 -84 0
-26 45 -66 100 -90 25 -11 114 -35 197 -54 232 -52 277 -69 350 -137 53 -49
77 -92 93 -172 25 -119 -9 -225 -97 -305 -104 -95 -238 -140 -421 -140 -241 0
-438 93 -519 247 -32 59 -60 174 -47 195 9 14 265 5 307 -11 17 -7 34 -24 42
-45 19 -44 44 -62 124 -86 110 -35 214 -19 266 39 20 23 20 23 -1 59 -33 56
-119 96 -304 137 -180 41 -260 76 -329 145 -136 136 -130 302 17 442 136 130
346 184 550 142z m4127 -8 c139 -38 271 -178 311 -331 39 -145 -12 -313 -145
-475 -69 -85 -70 -70 20 -196 60 -84 139 -220 139 -241 0 -10 -45 -13 -193
-13 l-193 0 -88 154 c-98 173 -88 166 -222 166 l-74 0 0 -122 c0 -68 -3 -140
-6 -161 l-7 -37 -158 0 -159 0 0 634 0 635 48 4 c26 3 187 3 357 2 251 -2 321
-6 370 -19z m-1390 -20 c201 -69 340 -207 400 -399 75 -236 18 -466 -159 -642
-120 -120 -236 -176 -402 -194 -348 -39 -668 188 -730 519 -67 355 138 651
506 735 104 24 285 15 385 -19z m3025 -95 l0 -128 -67 -6 c-38 -4 -98 -7 -134
-7 -36 0 -107 -3 -157 -6 l-92 -7 0 -141 c0 -78 -3 -300 -7 -493 l-6 -353
-164 0 -163 0 0 495 0 495 -82 0 c-46 0 -147 3 -225 7 l-143 6 0 127 c0 70 3
130 7 133 3 4 282 7 620 7 l613 0 0 -129z m-1031 -419 c37 -69 44 -672 8 -672
-24 0 -106 102 -161 199 -66 118 -67 89 9 231 19 36 39 88 45 115 11 51 62
145 80 145 5 0 14 -8 19 -18z"/>
<path d="M1896 1262 l-28 -7 1 -200 c1 -110 4 -201 7 -204 2 -2 61 -5 132 -5
101 0 135 3 167 17 84 38 115 89 115 192 0 103 -32 156 -115 191 -43 18 -227
29 -279 16z"/>
<path d="M4638 1263 l-38 -4 0 -188 0 -188 31 -7 c49 -10 210 -7 250 4 45 13
96 47 122 82 48 64 27 204 -37 253 -60 45 -181 63 -328 48z"/>
<path d="M3338 1250 c-60 -15 -154 -67 -194 -107 -60 -60 -89 -134 -89 -228 0
-69 5 -90 32 -147 58 -123 152 -198 274 -217 149 -24 315 59 387 194 24 45 27
61 27 150 0 93 -2 105 -33 167 -37 75 -96 133 -170 169 -53 25 -171 35 -234
19z m160 -236 l52 -26 0 -58 c0 -102 -6 -116 -60 -139 -50 -22 -85 -25 -137
-15 -36 7 -61 53 -70 125 -7 59 10 90 65 118 50 27 88 26 150 -5z"/>
<path d="M8455 1773 c-27 -1 -78 -5 -112 -9 l-63 -6 0 -236 c0 -130 -3 -348
-7 -485 l-6 -247 -201 2 -201 3 -6 365 c-3 201 -7 420 -8 488 l-1 122 -297 0
c-164 0 -335 -3 -380 -7 l-83 -6 0 -860 0 -860 1262 7 c695 4 1264 9 1266 10
2 2 6 67 9 144 3 77 10 147 15 154 10 16 75 -51 197 -201 45 -55 86 -103 92
-107 6 -3 433 -3 950 1 l939 8 2 341 c3 299 1 342 -12 351 -9 6 -30 19 -48 30
-39 24 -52 59 -52 137 0 74 9 92 58 111 22 9 42 23 46 32 8 22 8 371 -1 563
l-6 152 -999 0 -998 0 0 -160 c0 -88 -2 -160 -5 -160 -33 0 -107 70 -170 160
-55 79 -114 138 -149 150 -28 9 -911 20 -1031 13z m1828 -228 l77 -7 0 -629 0
-629 -27 -7 c-16 -4 -80 -7 -143 -8 -156 0 -184 15 -288 155 -185 250 -448
550 -481 550 -8 0 -11 -103 -11 -350 l0 -350 -165 0 -165 0 0 636 0 636 168
-7 c142 -6 169 -10 182 -25 8 -10 98 -118 200 -241 218 -264 330 -391 373
-421 l30 -22 -6 306 c-6 301 -3 353 26 392 15 21 76 36 122 30 17 -2 65 -6
108 -9z m-2667 -19 l28 -23 0 -474 1 -474 220 -6 c121 -4 271 -7 333 -8 l112
-1 0 -135 0 -135 -500 0 -500 0 0 243 c0 134 3 420 7 635 l6 391 31 4 c17 2
77 5 133 5 94 2 104 0 129 -22z m3987 5 c5 -5 11 -58 14 -118 6 -109 5 -111
-18 -126 -20 -12 -82 -17 -341 -22 l-318 -8 0 -103 0 -104 214 0 c117 0 241
-3 275 -6 l61 -7 0 -133 0 -134 -162 0 c-90 0 -214 -3 -275 -7 l-113 -6 0 -97
0 -97 167 -6 c91 -4 208 -7 258 -7 51 0 127 -3 169 -6 l77 -7 -3 -131 -3 -130
-45 -10 c-52 -11 -892 -14 -931 -3 l-27 7 -7 172 c-8 203 0 1040 11 1082 l7
29 491 -7 c270 -4 495 -11 499 -15z m-2776 -428 c-4 -240 -7 -526 -7 -635 l0
-198 -160 0 -160 0 0 635 0 635 167 0 166 0 -6 -437z"/>
</g>
</svg>
